
    <svg xmlns="http://www.w3.org/2000/svg" width="810" height="150" viewBox="-8 0 810 150"  xmlns:xlink="http://www.w3.org/1999/xlink"><rect x="701" y="80" width="100" height="34" style="fill:#E6F1FF;"/><rect x="601" y="80" width="100" height="34" style="fill:#E6F1FF;"/><rect x="501" y="80" width="100" height="34" style="fill:#E6F1FF;"/><rect x="401" y="80" width="100" height="34" style="fill:#E6F1FF;"/><rect x="301" y="80" width="100" height="34" style="fill:#E6F1FF;"/><rect x="201" y="80" width="100" height="34" style="fill:#E6F1FF;"/><rect x="101" y="80" width="100" height="34" style="fill:#E6F1FF;"/><rect x="1" y="80" width="100" height="34" style="fill:#E6F1FF;"/><rect x="701" y="20" width="100" height="34" style="fill:#E6F1FF;"/><rect x="601" y="20" width="100" height="34" style="fill:#E6F1FF;"/><rect x="501" y="20" width="100" height="34" style="fill:#E6F1FF;"/><rect x="401" y="20" width="100" height="34" style="fill:#E6F1FF;"/><rect x="301" y="20" width="100" height="34" style="fill:#E6F1FF;"/><rect x="201" y="20" width="100" height="34" style="fill:#E6F1FF;"/><rect x="101" y="20" width="100" height="34" style="fill:#E6F1FF;"/><rect x="1" y="20" width="100" height="34" style="fill:#E6F1FF;"/><g transform="translate(751,92)"><text y="6" font-size="13" style='dominant-baseline:middle;text-anchor:middle;'>MODE8 </text></g><g transform="translate(751,116)"><text y="6" font-size="12" style='dominant-baseline:middle;text-anchor:middle;'>rw </text></g><g transform="translate(651,92)"><text y="6" font-size="13" style='dominant-baseline:middle;text-anchor:middle;'>CNF8 </text></g><g transform="translate(651,116)"><text y="6" font-size="12" style='dominant-baseline:middle;text-anchor:middle;'>rw </text></g><g transform="translate(551,92)"><text y="6" font-size="13" style='dominant-baseline:middle;text-anchor:middle;'>MODE9 </text></g><g transform="translate(551,116)"><text y="6" font-size="12" style='dominant-baseline:middle;text-anchor:middle;'>rw </text></g><g transform="translate(451,92)"><text y="6" font-size="13" style='dominant-baseline:middle;text-anchor:middle;'>CNF9 </text></g><g transform="translate(451,116)"><text y="6" font-size="12" style='dominant-baseline:middle;text-anchor:middle;'>rw </text></g><g transform="translate(351,92)"><text y="6" font-size="13" style='dominant-baseline:middle;text-anchor:middle;'>MODE10 </text></g><g transform="translate(351,116)"><text y="6" font-size="12" style='dominant-baseline:middle;text-anchor:middle;'>rw </text></g><g transform="translate(251,92)"><text y="6" font-size="13" style='dominant-baseline:middle;text-anchor:middle;'>CNF10 </text></g><g transform="translate(251,116)"><text y="6" font-size="12" style='dominant-baseline:middle;text-anchor:middle;'>rw </text></g><g transform="translate(151,92)"><text y="6" font-size="13" style='dominant-baseline:middle;text-anchor:middle;'>MODE11 </text></g><g transform="translate(151,116)"><text y="6" font-size="12" style='dominant-baseline:middle;text-anchor:middle;'>rw </text></g><g transform="translate(51,92)"><text y="6" font-size="13" style='dominant-baseline:middle;text-anchor:middle;'>CNF11 </text></g><g transform="translate(51,116)"><text y="6" font-size="12" style='dominant-baseline:middle;text-anchor:middle;'>rw </text></g><g transform="translate(751,32)"><text y="6" font-size="13" style='dominant-baseline:middle;text-anchor:middle;'>MODE12 </text></g><g transform="translate(751,56)"><text y="6" font-size="12" style='dominant-baseline:middle;text-anchor:middle;'>rw </text></g><g transform="translate(651,32)"><text y="6" font-size="13" style='dominant-baseline:middle;text-anchor:middle;'>CNF12 </text></g><g transform="translate(651,56)"><text y="6" font-size="12" style='dominant-baseline:middle;text-anchor:middle;'>rw </text></g><g transform="translate(551,32)"><text y="6" font-size="13" style='dominant-baseline:middle;text-anchor:middle;'>MODE13 </text></g><g transform="translate(551,56)"><text y="6" font-size="12" style='dominant-baseline:middle;text-anchor:middle;'>rw </text></g><g transform="translate(451,32)"><text y="6" font-size="13" style='dominant-baseline:middle;text-anchor:middle;'>CNF13 </text></g><g transform="translate(451,56)"><text y="6" font-size="12" style='dominant-baseline:middle;text-anchor:middle;'>rw </text></g><g transform="translate(351,32)"><text y="6" font-size="13" style='dominant-baseline:middle;text-anchor:middle;'>MODE14 </text></g><g transform="translate(351,56)"><text y="6" font-size="12" style='dominant-baseline:middle;text-anchor:middle;'>rw </text></g><g transform="translate(251,32)"><text y="6" font-size="13" style='dominant-baseline:middle;text-anchor:middle;'>CNF14 </text></g><g transform="translate(251,56)"><text y="6" font-size="12" style='dominant-baseline:middle;text-anchor:middle;'>rw </text></g><g transform="translate(151,32)"><text y="6" font-size="13" style='dominant-baseline:middle;text-anchor:middle;'>MODE15 </text></g><g transform="translate(151,56)"><text y="6" font-size="12" style='dominant-baseline:middle;text-anchor:middle;'>rw </text></g><g transform="translate(51,32)"><text y="6" font-size="13" style='dominant-baseline:middle;text-anchor:middle;'>CNF15 </text></g><g transform="translate(51,56)"><text y="6" font-size="12" style='dominant-baseline:middle;text-anchor:middle;'>rw </text></g><g transform="translate(676,68)"><text y="6" font-size="13" style='dominant-baseline:middle;text-anchor:middle;'>2 </text></g><g transform="translate(726,68)"><text y="6" font-size="13" style='dominant-baseline:middle;text-anchor:middle;'>1 </text></g><g transform="translate(576,68)"><text y="6" font-size="13" style='dominant-baseline:middle;text-anchor:middle;'>4 </text></g><g transform="translate(626,68)"><text y="6" font-size="13" style='dominant-baseline:middle;text-anchor:middle;'>3 </text></g><g transform="translate(476,68)"><text y="6" font-size="13" style='dominant-baseline:middle;text-anchor:middle;'>6 </text></g><g transform="translate(526,68)"><text y="6" font-size="13" style='dominant-baseline:middle;text-anchor:middle;'>5 </text></g><g transform="translate(376,68)"><text y="6" font-size="13" style='dominant-baseline:middle;text-anchor:middle;'>8 </text></g><g transform="translate(426,68)"><text y="6" font-size="13" style='dominant-baseline:middle;text-anchor:middle;'>7 </text></g><g transform="translate(276,68)"><text y="6" font-size="13" style='dominant-baseline:middle;text-anchor:middle;'>10 </text></g><g transform="translate(326,68)"><text y="6" font-size="13" style='dominant-baseline:middle;text-anchor:middle;'>9 </text></g><g transform="translate(176,68)"><text y="6" font-size="13" style='dominant-baseline:middle;text-anchor:middle;'>12 </text></g><g transform="translate(226,68)"><text y="6" font-size="13" style='dominant-baseline:middle;text-anchor:middle;'>11 </text></g><g transform="translate(76,68)"><text y="6" font-size="13" style='dominant-baseline:middle;text-anchor:middle;'>14 </text></g><g transform="translate(126,68)"><text y="6" font-size="13" style='dominant-baseline:middle;text-anchor:middle;'>13 </text></g><g transform="translate(-24,68)"><text y="6" font-size="13" style='dominant-baseline:middle;text-anchor:middle;'>16 </text></g><g transform="translate(26,68)"><text y="6" font-size="13" style='dominant-baseline:middle;text-anchor:middle;'>15 </text></g><g transform="translate(676,8)"><text y="6" font-size="13" style='dominant-baseline:middle;text-anchor:middle;'>18 </text></g><g transform="translate(726,8)"><text y="6" font-size="13" style='dominant-baseline:middle;text-anchor:middle;'>17 </text></g><g transform="translate(576,8)"><text y="6" font-size="13" style='dominant-baseline:middle;text-anchor:middle;'>20 </text></g><g transform="translate(626,8)"><text y="6" font-size="13" style='dominant-baseline:middle;text-anchor:middle;'>19 </text></g><g transform="translate(476,8)"><text y="6" font-size="13" style='dominant-baseline:middle;text-anchor:middle;'>22 </text></g><g transform="translate(526,8)"><text y="6" font-size="13" style='dominant-baseline:middle;text-anchor:middle;'>21 </text></g><g transform="translate(376,8)"><text y="6" font-size="13" style='dominant-baseline:middle;text-anchor:middle;'>24 </text></g><g transform="translate(426,8)"><text y="6" font-size="13" style='dominant-baseline:middle;text-anchor:middle;'>23 </text></g><g transform="translate(276,8)"><text y="6" font-size="13" style='dominant-baseline:middle;text-anchor:middle;'>26 </text></g><g transform="translate(326,8)"><text y="6" font-size="13" style='dominant-baseline:middle;text-anchor:middle;'>25 </text></g><g transform="translate(176,8)"><text y="6" font-size="13" style='dominant-baseline:middle;text-anchor:middle;'>28 </text></g><g transform="translate(226,8)"><text y="6" font-size="13" style='dominant-baseline:middle;text-anchor:middle;'>27 </text></g><g transform="translate(76,8)"><text y="6" font-size="13" style='dominant-baseline:middle;text-anchor:middle;'>30 </text></g><g transform="translate(126,8)"><text y="6" font-size="13" style='dominant-baseline:middle;text-anchor:middle;'>29 </text></g><g transform="translate(-24,8)"><text y="6" font-size="13" style='dominant-baseline:middle;text-anchor:middle;'>32 </text></g><g transform="translate(26,8)"><text y="6" font-size="13" style='dominant-baseline:middle;text-anchor:middle;'>31 </text></g><line x1="751" y1="80" x2="751" y2="85" stroke="black" stroke-width="1"/><line x1="751" y1="115" x2="751" y2="110" stroke="black" stroke-width="1"/><line x1="701" y1="80" x2="701" y2="115" stroke="black" stroke-width="1"/><line x1="651" y1="80" x2="651" y2="85" stroke="black" stroke-width="1"/><line x1="651" y1="115" x2="651" y2="110" stroke="black" stroke-width="1"/><line x1="601" y1="80" x2="601" y2="115" stroke="black" stroke-width="1"/><line x1="551" y1="80" x2="551" y2="85" stroke="black" stroke-width="1"/><line x1="551" y1="115" x2="551" y2="110" stroke="black" stroke-width="1"/><line x1="501" y1="80" x2="501" y2="115" stroke="black" stroke-width="1"/><line x1="451" y1="80" x2="451" y2="85" stroke="black" stroke-width="1"/><line x1="451" y1="115" x2="451" y2="110" stroke="black" stroke-width="1"/><line x1="401" y1="80" x2="401" y2="115" stroke="black" stroke-width="1"/><line x1="351" y1="80" x2="351" y2="85" stroke="black" stroke-width="1"/><line x1="351" y1="115" x2="351" y2="110" stroke="black" stroke-width="1"/><line x1="301" y1="80" x2="301" y2="115" stroke="black" stroke-width="1"/><line x1="251" y1="80" x2="251" y2="85" stroke="black" stroke-width="1"/><line x1="251" y1="115" x2="251" y2="110" stroke="black" stroke-width="1"/><line x1="201" y1="80" x2="201" y2="115" stroke="black" stroke-width="1"/><line x1="151" y1="80" x2="151" y2="85" stroke="black" stroke-width="1"/><line x1="151" y1="115" x2="151" y2="110" stroke="black" stroke-width="1"/><line x1="101" y1="80" x2="101" y2="115" stroke="black" stroke-width="1"/><line x1="51" y1="80" x2="51" y2="85" stroke="black" stroke-width="1"/><line x1="51" y1="115" x2="51" y2="110" stroke="black" stroke-width="1"/><line x1="751" y1="20" x2="751" y2="25" stroke="black" stroke-width="1"/><line x1="751" y1="55" x2="751" y2="50" stroke="black" stroke-width="1"/><line x1="701" y1="20" x2="701" y2="55" stroke="black" stroke-width="1"/><line x1="651" y1="20" x2="651" y2="25" stroke="black" stroke-width="1"/><line x1="651" y1="55" x2="651" y2="50" stroke="black" stroke-width="1"/><line x1="601" y1="20" x2="601" y2="55" stroke="black" stroke-width="1"/><line x1="551" y1="20" x2="551" y2="25" stroke="black" stroke-width="1"/><line x1="551" y1="55" x2="551" y2="50" stroke="black" stroke-width="1"/><line x1="501" y1="20" x2="501" y2="55" stroke="black" stroke-width="1"/><line x1="451" y1="20" x2="451" y2="25" stroke="black" stroke-width="1"/><line x1="451" y1="55" x2="451" y2="50" stroke="black" stroke-width="1"/><line x1="401" y1="20" x2="401" y2="55" stroke="black" stroke-width="1"/><line x1="351" y1="20" x2="351" y2="25" stroke="black" stroke-width="1"/><line x1="351" y1="55" x2="351" y2="50" stroke="black" stroke-width="1"/><line x1="301" y1="20" x2="301" y2="55" stroke="black" stroke-width="1"/><line x1="251" y1="20" x2="251" y2="25" stroke="black" stroke-width="1"/><line x1="251" y1="55" x2="251" y2="50" stroke="black" stroke-width="1"/><line x1="201" y1="20" x2="201" y2="55" stroke="black" stroke-width="1"/><line x1="151" y1="20" x2="151" y2="25" stroke="black" stroke-width="1"/><line x1="151" y1="55" x2="151" y2="50" stroke="black" stroke-width="1"/><line x1="101" y1="20" x2="101" y2="55" stroke="black" stroke-width="1"/><line x1="51" y1="20" x2="51" y2="25" stroke="black" stroke-width="1"/><line x1="51" y1="55" x2="51" y2="50" stroke="black" stroke-width="1"/><line x1="0" y1="20" x2="801" y2="20" stroke="black" stroke-width="1"/><line x1="0" y1="20" x2="0" y2="55" stroke="black" stroke-width="1"/><line x1="0" y1="55" x2="801" y2="55" stroke="black" stroke-width="1"/><line x1="801" y1="20" x2="801" y2="55" stroke="black" stroke-width="1"/><line x1="0" y1="80" x2="801" y2="80" stroke="black" stroke-width="1"/><line x1="0" y1="80" x2="0" y2="115" stroke="black" stroke-width="1"/><line x1="0" y1="115" x2="801" y2="115" stroke="black" stroke-width="1"/><line x1="801" y1="80" x2="801" y2="115" stroke="black" stroke-width="1"/><g transform="translate(776,8)"><text y="6" font-size="13" style='dominant-baseline:middle;text-anchor:middle;'>16 </text></g><g transform="translate(776,68)"><text y="6" font-size="13" style='dominant-baseline:middle;text-anchor:middle;'>0 </text></g></svg>