
    <svg xmlns="http://www.w3.org/2000/svg" width="810" height="150" viewBox="-8 0 810 150"  xmlns:xlink="http://www.w3.org/1999/xlink"><rect x="751" y="80" width="50" height="34" style="fill:#FFF9E6;"/><rect x="701" y="80" width="50" height="34" style="fill:#FFF9E6;"/><rect x="651" y="80" width="50" height="34" style="fill:#FFF9E6;"/><rect x="601" y="80" width="50" height="34" style="fill:#FFF9E6;"/><rect x="551" y="80" width="50" height="34" style="fill:#FFF9E6;"/><rect x="501" y="80" width="50" height="34" style="fill:#FFF9E6;"/><rect x="451" y="80" width="50" height="34" style="fill:#FFF9E6;"/><rect x="401" y="80" width="50" height="34" style="fill:#FFF9E6;"/><rect x="351" y="80" width="50" height="34" style="fill:#FFF9E6;"/><rect x="301" y="80" width="50" height="34" style="fill:#FFF9E6;"/><rect x="251" y="80" width="50" height="34" style="fill:#FFF9E6;"/><rect x="201" y="80" width="50" height="34" style="fill:#FFF9E6;"/><rect x="151" y="80" width="50" height="34" style="fill:#FFF9E6;"/><rect x="101" y="80" width="50" height="34" style="fill:#FFF9E6;"/><rect x="51" y="80" width="50" height="34" style="fill:#FFF9E6;"/><rect x="1" y="80" width="50" height="34" style="fill:#FFF9E6;"/><rect x="751" y="20" width="50" height="34" style="fill:#FFF9E6;"/><rect x="701" y="20" width="50" height="34" style="fill:#FFF9E6;"/><rect x="651" y="20" width="50" height="34" style="fill:#FFF9E6;"/><rect x="601" y="20" width="50" height="34" style="fill:#FFF9E6;"/><rect x="551" y="20" width="50" height="34" style="fill:#FFF9E6;"/><rect x="501" y="20" width="50" height="34" style="fill:#FFF9E6;"/><rect x="451" y="20" width="50" height="34" style="fill:#FFF9E6;"/><rect x="401" y="20" width="50" height="34" style="fill:#FFF9E6;"/><rect x="351" y="20" width="50" height="34" style="fill:#FFF9E6;"/><rect x="301" y="20" width="50" height="34" style="fill:#FFF9E6;"/><rect x="251" y="20" width="50" height="34" style="fill:#FFF9E6;"/><rect x="201" y="20" width="50" height="34" style="fill:#FFF9E6;"/><rect x="1" y="20" width="200" height="34" style="fill:#E6E6E6;"/><g transform="translate(776,92)"><text y="6" font-size="13" style='dominant-baseline:middle;text-anchor:middle;'>GIF1 </text></g><g transform="translate(776,116)"><text y="6" font-size="12" style='dominant-baseline:middle;text-anchor:middle;'>r </text></g><g transform="translate(726,92)"><text y="6" font-size="13" style='dominant-baseline:middle;text-anchor:middle;'>TCIF1 </text></g><g transform="translate(726,116)"><text y="6" font-size="12" style='dominant-baseline:middle;text-anchor:middle;'>r </text></g><g transform="translate(676,92)"><text y="6" font-size="13" style='dominant-baseline:middle;text-anchor:middle;'>HTIF1 </text></g><g transform="translate(676,116)"><text y="6" font-size="12" style='dominant-baseline:middle;text-anchor:middle;'>r </text></g><g transform="translate(626,92)"><text y="6" font-size="13" style='dominant-baseline:middle;text-anchor:middle;'>TEIF1 </text></g><g transform="translate(626,116)"><text y="6" font-size="12" style='dominant-baseline:middle;text-anchor:middle;'>r </text></g><g transform="translate(576,92)"><text y="6" font-size="13" style='dominant-baseline:middle;text-anchor:middle;'>GIF2 </text></g><g transform="translate(576,116)"><text y="6" font-size="12" style='dominant-baseline:middle;text-anchor:middle;'>r </text></g><g transform="translate(526,92)"><text y="6" font-size="13" style='dominant-baseline:middle;text-anchor:middle;'>TCIF2 </text></g><g transform="translate(526,116)"><text y="6" font-size="12" style='dominant-baseline:middle;text-anchor:middle;'>r </text></g><g transform="translate(476,92)"><text y="6" font-size="13" style='dominant-baseline:middle;text-anchor:middle;'>HTIF2 </text></g><g transform="translate(476,116)"><text y="6" font-size="12" style='dominant-baseline:middle;text-anchor:middle;'>r </text></g><g transform="translate(426,92)"><text y="6" font-size="13" style='dominant-baseline:middle;text-anchor:middle;'>TEIF2 </text></g><g transform="translate(426,116)"><text y="6" font-size="12" style='dominant-baseline:middle;text-anchor:middle;'>r </text></g><g transform="translate(376,92)"><text y="6" font-size="13" style='dominant-baseline:middle;text-anchor:middle;'>GIF3 </text></g><g transform="translate(376,116)"><text y="6" font-size="12" style='dominant-baseline:middle;text-anchor:middle;'>r </text></g><g transform="translate(326,92)"><text y="6" font-size="13" style='dominant-baseline:middle;text-anchor:middle;'>TCIF3 </text></g><g transform="translate(326,116)"><text y="6" font-size="12" style='dominant-baseline:middle;text-anchor:middle;'>r </text></g><g transform="translate(276,92)"><text y="6" font-size="13" style='dominant-baseline:middle;text-anchor:middle;'>HTIF3 </text></g><g transform="translate(276,116)"><text y="6" font-size="12" style='dominant-baseline:middle;text-anchor:middle;'>r </text></g><g transform="translate(226,92)"><text y="6" font-size="13" style='dominant-baseline:middle;text-anchor:middle;'>TEIF3 </text></g><g transform="translate(226,116)"><text y="6" font-size="12" style='dominant-baseline:middle;text-anchor:middle;'>r </text></g><g transform="translate(176,92)"><text y="6" font-size="13" style='dominant-baseline:middle;text-anchor:middle;'>GIF4 </text></g><g transform="translate(176,116)"><text y="6" font-size="12" style='dominant-baseline:middle;text-anchor:middle;'>r </text></g><g transform="translate(126,92)"><text y="6" font-size="13" style='dominant-baseline:middle;text-anchor:middle;'>TCIF4 </text></g><g transform="translate(126,116)"><text y="6" font-size="12" style='dominant-baseline:middle;text-anchor:middle;'>r </text></g><g transform="translate(76,92)"><text y="6" font-size="13" style='dominant-baseline:middle;text-anchor:middle;'>HTIF4 </text></g><g transform="translate(76,116)"><text y="6" font-size="12" style='dominant-baseline:middle;text-anchor:middle;'>r </text></g><g transform="translate(26,92)"><text y="6" font-size="13" style='dominant-baseline:middle;text-anchor:middle;'>TEIF4 </text></g><g transform="translate(26,116)"><text y="6" font-size="12" style='dominant-baseline:middle;text-anchor:middle;'>r </text></g><g transform="translate(776,32)"><text y="6" font-size="13" style='dominant-baseline:middle;text-anchor:middle;'>GIF5 </text></g><g transform="translate(776,56)"><text y="6" font-size="12" style='dominant-baseline:middle;text-anchor:middle;'>r </text></g><g transform="translate(726,32)"><text y="6" font-size="13" style='dominant-baseline:middle;text-anchor:middle;'>TCIF5 </text></g><g transform="translate(726,56)"><text y="6" font-size="12" style='dominant-baseline:middle;text-anchor:middle;'>r </text></g><g transform="translate(676,32)"><text y="6" font-size="13" style='dominant-baseline:middle;text-anchor:middle;'>HTIF5 </text></g><g transform="translate(676,56)"><text y="6" font-size="12" style='dominant-baseline:middle;text-anchor:middle;'>r </text></g><g transform="translate(626,32)"><text y="6" font-size="13" style='dominant-baseline:middle;text-anchor:middle;'>TEIF5 </text></g><g transform="translate(626,56)"><text y="6" font-size="12" style='dominant-baseline:middle;text-anchor:middle;'>r </text></g><g transform="translate(576,32)"><text y="6" font-size="13" style='dominant-baseline:middle;text-anchor:middle;'>GIF6 </text></g><g transform="translate(576,56)"><text y="6" font-size="12" style='dominant-baseline:middle;text-anchor:middle;'>r </text></g><g transform="translate(526,32)"><text y="6" font-size="13" style='dominant-baseline:middle;text-anchor:middle;'>TCIF6 </text></g><g transform="translate(526,56)"><text y="6" font-size="12" style='dominant-baseline:middle;text-anchor:middle;'>r </text></g><g transform="translate(476,32)"><text y="6" font-size="13" style='dominant-baseline:middle;text-anchor:middle;'>HTIF6 </text></g><g transform="translate(476,56)"><text y="6" font-size="12" style='dominant-baseline:middle;text-anchor:middle;'>r </text></g><g transform="translate(426,32)"><text y="6" font-size="13" style='dominant-baseline:middle;text-anchor:middle;'>TEIF6 </text></g><g transform="translate(426,56)"><text y="6" font-size="12" style='dominant-baseline:middle;text-anchor:middle;'>r </text></g><g transform="translate(376,32)"><text y="6" font-size="13" style='dominant-baseline:middle;text-anchor:middle;'>GIF7 </text></g><g transform="translate(376,56)"><text y="6" font-size="12" style='dominant-baseline:middle;text-anchor:middle;'>r </text></g><g transform="translate(326,32)"><text y="6" font-size="13" style='dominant-baseline:middle;text-anchor:middle;'>TCIF7 </text></g><g transform="translate(326,56)"><text y="6" font-size="12" style='dominant-baseline:middle;text-anchor:middle;'>r </text></g><g transform="translate(276,32)"><text y="6" font-size="13" style='dominant-baseline:middle;text-anchor:middle;'>HTIF7 </text></g><g transform="translate(276,56)"><text y="6" font-size="12" style='dominant-baseline:middle;text-anchor:middle;'>r </text></g><g transform="translate(226,32)"><text y="6" font-size="13" style='dominant-baseline:middle;text-anchor:middle;'>TEIF7 </text></g><g transform="translate(226,56)"><text y="6" font-size="12" style='dominant-baseline:middle;text-anchor:middle;'>r </text></g><g transform="translate(101,32)"><text y="6" font-size="13" style='dominant-baseline:middle;text-anchor:middle;'>RES. </text></g><g transform="translate(101,56)"><text y="6" font-size="12" style='dominant-baseline:middle;text-anchor:middle;'> </text></g><g transform="translate(726,68)"><text y="6" font-size="13" style='dominant-baseline:middle;text-anchor:middle;'>1 </text></g><g transform="translate(776,68)"><text y="6" font-size="13" style='dominant-baseline:middle;text-anchor:middle;'>0 </text></g><g transform="translate(676,68)"><text y="6" font-size="13" style='dominant-baseline:middle;text-anchor:middle;'>2 </text></g><g transform="translate(726,68)"><text y="6" font-size="13" style='dominant-baseline:middle;text-anchor:middle;'>1 </text></g><g transform="translate(626,68)"><text y="6" font-size="13" style='dominant-baseline:middle;text-anchor:middle;'>3 </text></g><g transform="translate(676,68)"><text y="6" font-size="13" style='dominant-baseline:middle;text-anchor:middle;'>2 </text></g><g transform="translate(576,68)"><text y="6" font-size="13" style='dominant-baseline:middle;text-anchor:middle;'>4 </text></g><g transform="translate(626,68)"><text y="6" font-size="13" style='dominant-baseline:middle;text-anchor:middle;'>3 </text></g><g transform="translate(526,68)"><text y="6" font-size="13" style='dominant-baseline:middle;text-anchor:middle;'>5 </text></g><g transform="translate(576,68)"><text y="6" font-size="13" style='dominant-baseline:middle;text-anchor:middle;'>4 </text></g><g transform="translate(476,68)"><text y="6" font-size="13" style='dominant-baseline:middle;text-anchor:middle;'>6 </text></g><g transform="translate(526,68)"><text y="6" font-size="13" style='dominant-baseline:middle;text-anchor:middle;'>5 </text></g><g transform="translate(426,68)"><text y="6" font-size="13" style='dominant-baseline:middle;text-anchor:middle;'>7 </text></g><g transform="translate(476,68)"><text y="6" font-size="13" style='dominant-baseline:middle;text-anchor:middle;'>6 </text></g><g transform="translate(376,68)"><text y="6" font-size="13" style='dominant-baseline:middle;text-anchor:middle;'>8 </text></g><g transform="translate(426,68)"><text y="6" font-size="13" style='dominant-baseline:middle;text-anchor:middle;'>7 </text></g><g transform="translate(326,68)"><text y="6" font-size="13" style='dominant-baseline:middle;text-anchor:middle;'>9 </text></g><g transform="translate(376,68)"><text y="6" font-size="13" style='dominant-baseline:middle;text-anchor:middle;'>8 </text></g><g transform="translate(276,68)"><text y="6" font-size="13" style='dominant-baseline:middle;text-anchor:middle;'>10 </text></g><g transform="translate(326,68)"><text y="6" font-size="13" style='dominant-baseline:middle;text-anchor:middle;'>9 </text></g><g transform="translate(226,68)"><text y="6" font-size="13" style='dominant-baseline:middle;text-anchor:middle;'>11 </text></g><g transform="translate(276,68)"><text y="6" font-size="13" style='dominant-baseline:middle;text-anchor:middle;'>10 </text></g><g transform="translate(176,68)"><text y="6" font-size="13" style='dominant-baseline:middle;text-anchor:middle;'>12 </text></g><g transform="translate(226,68)"><text y="6" font-size="13" style='dominant-baseline:middle;text-anchor:middle;'>11 </text></g><g transform="translate(126,68)"><text y="6" font-size="13" style='dominant-baseline:middle;text-anchor:middle;'>13 </text></g><g transform="translate(176,68)"><text y="6" font-size="13" style='dominant-baseline:middle;text-anchor:middle;'>12 </text></g><g transform="translate(76,68)"><text y="6" font-size="13" style='dominant-baseline:middle;text-anchor:middle;'>14 </text></g><g transform="translate(126,68)"><text y="6" font-size="13" style='dominant-baseline:middle;text-anchor:middle;'>13 </text></g><g transform="translate(26,68)"><text y="6" font-size="13" style='dominant-baseline:middle;text-anchor:middle;'>15 </text></g><g transform="translate(76,68)"><text y="6" font-size="13" style='dominant-baseline:middle;text-anchor:middle;'>14 </text></g><g transform="translate(-24,68)"><text y="6" font-size="13" style='dominant-baseline:middle;text-anchor:middle;'>16 </text></g><g transform="translate(26,68)"><text y="6" font-size="13" style='dominant-baseline:middle;text-anchor:middle;'>15 </text></g><g transform="translate(726,8)"><text y="6" font-size="13" style='dominant-baseline:middle;text-anchor:middle;'>17 </text></g><g transform="translate(776,8)"><text y="6" font-size="13" style='dominant-baseline:middle;text-anchor:middle;'>16 </text></g><g transform="translate(676,8)"><text y="6" font-size="13" style='dominant-baseline:middle;text-anchor:middle;'>18 </text></g><g transform="translate(726,8)"><text y="6" font-size="13" style='dominant-baseline:middle;text-anchor:middle;'>17 </text></g><g transform="translate(626,8)"><text y="6" font-size="13" style='dominant-baseline:middle;text-anchor:middle;'>19 </text></g><g transform="translate(676,8)"><text y="6" font-size="13" style='dominant-baseline:middle;text-anchor:middle;'>18 </text></g><g transform="translate(576,8)"><text y="6" font-size="13" style='dominant-baseline:middle;text-anchor:middle;'>20 </text></g><g transform="translate(626,8)"><text y="6" font-size="13" style='dominant-baseline:middle;text-anchor:middle;'>19 </text></g><g transform="translate(526,8)"><text y="6" font-size="13" style='dominant-baseline:middle;text-anchor:middle;'>21 </text></g><g transform="translate(576,8)"><text y="6" font-size="13" style='dominant-baseline:middle;text-anchor:middle;'>20 </text></g><g transform="translate(476,8)"><text y="6" font-size="13" style='dominant-baseline:middle;text-anchor:middle;'>22 </text></g><g transform="translate(526,8)"><text y="6" font-size="13" style='dominant-baseline:middle;text-anchor:middle;'>21 </text></g><g transform="translate(426,8)"><text y="6" font-size="13" style='dominant-baseline:middle;text-anchor:middle;'>23 </text></g><g transform="translate(476,8)"><text y="6" font-size="13" style='dominant-baseline:middle;text-anchor:middle;'>22 </text></g><g transform="translate(376,8)"><text y="6" font-size="13" style='dominant-baseline:middle;text-anchor:middle;'>24 </text></g><g transform="translate(426,8)"><text y="6" font-size="13" style='dominant-baseline:middle;text-anchor:middle;'>23 </text></g><g transform="translate(326,8)"><text y="6" font-size="13" style='dominant-baseline:middle;text-anchor:middle;'>25 </text></g><g transform="translate(376,8)"><text y="6" font-size="13" style='dominant-baseline:middle;text-anchor:middle;'>24 </text></g><g transform="translate(276,8)"><text y="6" font-size="13" style='dominant-baseline:middle;text-anchor:middle;'>26 </text></g><g transform="translate(326,8)"><text y="6" font-size="13" style='dominant-baseline:middle;text-anchor:middle;'>25 </text></g><g transform="translate(226,8)"><text y="6" font-size="13" style='dominant-baseline:middle;text-anchor:middle;'>27 </text></g><g transform="translate(276,8)"><text y="6" font-size="13" style='dominant-baseline:middle;text-anchor:middle;'>26 </text></g><g transform="translate(176,8)"><text y="6" font-size="13" style='dominant-baseline:middle;text-anchor:middle;'>28 </text></g><g transform="translate(226,8)"><text y="6" font-size="13" style='dominant-baseline:middle;text-anchor:middle;'>27 </text></g><g transform="translate(-24,8)"><text y="6" font-size="13" style='dominant-baseline:middle;text-anchor:middle;'>32 </text></g><g transform="translate(26,8)"><text y="6" font-size="13" style='dominant-baseline:middle;text-anchor:middle;'>31 </text></g><line x1="751" y1="80" x2="751" y2="115" stroke="black" stroke-width="1"/><line x1="701" y1="80" x2="701" y2="115" stroke="black" stroke-width="1"/><line x1="651" y1="80" x2="651" y2="115" stroke="black" stroke-width="1"/><line x1="601" y1="80" x2="601" y2="115" stroke="black" stroke-width="1"/><line x1="551" y1="80" x2="551" y2="115" stroke="black" stroke-width="1"/><line x1="501" y1="80" x2="501" y2="115" stroke="black" stroke-width="1"/><line x1="451" y1="80" x2="451" y2="115" stroke="black" stroke-width="1"/><line x1="401" y1="80" x2="401" y2="115" stroke="black" stroke-width="1"/><line x1="351" y1="80" x2="351" y2="115" stroke="black" stroke-width="1"/><line x1="301" y1="80" x2="301" y2="115" stroke="black" stroke-width="1"/><line x1="251" y1="80" x2="251" y2="115" stroke="black" stroke-width="1"/><line x1="201" y1="80" x2="201" y2="115" stroke="black" stroke-width="1"/><line x1="151" y1="80" x2="151" y2="115" stroke="black" stroke-width="1"/><line x1="101" y1="80" x2="101" y2="115" stroke="black" stroke-width="1"/><line x1="51" y1="80" x2="51" y2="115" stroke="black" stroke-width="1"/><line x1="1" y1="80" x2="1" y2="115" stroke="black" stroke-width="1"/><line x1="-49" y1="80" x2="-49" y2="115" stroke="black" stroke-width="1"/><line x1="-99" y1="80" x2="-99" y2="115" stroke="black" stroke-width="1"/><line x1="-149" y1="80" x2="-149" y2="115" stroke="black" stroke-width="1"/><line x1="-199" y1="80" x2="-199" y2="115" stroke="black" stroke-width="1"/><line x1="-249" y1="80" x2="-249" y2="115" stroke="black" stroke-width="1"/><line x1="-299" y1="80" x2="-299" y2="115" stroke="black" stroke-width="1"/><line x1="-349" y1="80" x2="-349" y2="115" stroke="black" stroke-width="1"/><line x1="-399" y1="80" x2="-399" y2="115" stroke="black" stroke-width="1"/><line x1="-449" y1="80" x2="-449" y2="115" stroke="black" stroke-width="1"/><line x1="-499" y1="80" x2="-499" y2="115" stroke="black" stroke-width="1"/><line x1="-549" y1="80" x2="-549" y2="115" stroke="black" stroke-width="1"/><line x1="-599" y1="80" x2="-599" y2="115" stroke="black" stroke-width="1"/><line x1="-649" y1="80" x2="-649" y2="85" stroke="black" stroke-width="1"/><line x1="-649" y1="115" x2="-649" y2="110" stroke="black" stroke-width="1"/><line x1="-699" y1="80" x2="-699" y2="85" stroke="black" stroke-width="1"/><line x1="-699" y1="115" x2="-699" y2="110" stroke="black" stroke-width="1"/><line x1="-749" y1="80" x2="-749" y2="85" stroke="black" stroke-width="1"/><line x1="-749" y1="115" x2="-749" y2="110" stroke="black" stroke-width="1"/><line x1="751" y1="20" x2="751" y2="55" stroke="black" stroke-width="1"/><line x1="701" y1="20" x2="701" y2="55" stroke="black" stroke-width="1"/><line x1="651" y1="20" x2="651" y2="55" stroke="black" stroke-width="1"/><line x1="601" y1="20" x2="601" y2="55" stroke="black" stroke-width="1"/><line x1="551" y1="20" x2="551" y2="55" stroke="black" stroke-width="1"/><line x1="501" y1="20" x2="501" y2="55" stroke="black" stroke-width="1"/><line x1="451" y1="20" x2="451" y2="55" stroke="black" stroke-width="1"/><line x1="401" y1="20" x2="401" y2="55" stroke="black" stroke-width="1"/><line x1="351" y1="20" x2="351" y2="55" stroke="black" stroke-width="1"/><line x1="301" y1="20" x2="301" y2="55" stroke="black" stroke-width="1"/><line x1="251" y1="20" x2="251" y2="55" stroke="black" stroke-width="1"/><line x1="201" y1="20" x2="201" y2="55" stroke="black" stroke-width="1"/><line x1="151" y1="20" x2="151" y2="25" stroke="black" stroke-width="1"/><line x1="151" y1="55" x2="151" y2="50" stroke="black" stroke-width="1"/><line x1="101" y1="20" x2="101" y2="25" stroke="black" stroke-width="1"/><line x1="101" y1="55" x2="101" y2="50" stroke="black" stroke-width="1"/><line x1="51" y1="20" x2="51" y2="25" stroke="black" stroke-width="1"/><line x1="51" y1="55" x2="51" y2="50" stroke="black" stroke-width="1"/><line x1="0" y1="20" x2="801" y2="20" stroke="black" stroke-width="1"/><line x1="0" y1="20" x2="0" y2="55" stroke="black" stroke-width="1"/><line x1="0" y1="55" x2="801" y2="55" stroke="black" stroke-width="1"/><line x1="801" y1="20" x2="801" y2="55" stroke="black" stroke-width="1"/><line x1="0" y1="80" x2="801" y2="80" stroke="black" stroke-width="1"/><line x1="0" y1="80" x2="0" y2="115" stroke="black" stroke-width="1"/><line x1="0" y1="115" x2="801" y2="115" stroke="black" stroke-width="1"/><line x1="801" y1="80" x2="801" y2="115" stroke="black" stroke-width="1"/><g transform="translate(776,8)"><text y="6" font-size="13" style='dominant-baseline:middle;text-anchor:middle;'>16 </text></g><g transform="translate(776,68)"><text y="6" font-size="13" style='dominant-baseline:middle;text-anchor:middle;'>0 </text></g></svg>