
    <svg xmlns="http://www.w3.org/2000/svg" width="810" height="150" viewBox="-8 0 810 150"  xmlns:xlink="http://www.w3.org/1999/xlink"><rect x="751" y="80" width="50" height="34" style="fill:#E6F1FF;"/><rect x="701" y="80" width="50" height="34" style="fill:#E6F1FF;"/><rect x="651" y="80" width="50" height="34" style="fill:#E6F1FF;"/><rect x="251" y="80" width="400" height="34" style="fill:#E6E6E6;"/><rect x="201" y="80" width="50" height="34" style="fill:#E6F1FF;"/><rect x="101" y="80" width="100" height="34" style="fill:#E6E6E6;"/><rect x="51" y="80" width="50" height="34" style="fill:#E6F1FF;"/><rect x="1" y="80" width="50" height="34" style="fill:#E6E6E6;"/><rect x="751" y="20" width="50" height="34" style="fill:#E6E6E6;"/><rect x="701" y="20" width="50" height="34" style="fill:#E6F1FF;"/><rect x="651" y="20" width="50" height="34" style="fill:#E6F1FF;"/><rect x="551" y="20" width="100" height="34" style="fill:#E6E6E6;"/><rect x="501" y="20" width="50" height="34" style="fill:#E6F1FF;"/><rect x="451" y="20" width="50" height="34" style="fill:#E6F1FF;"/><rect x="401" y="20" width="50" height="34" style="fill:#E6F1FF;"/><rect x="351" y="20" width="50" height="34" style="fill:#E6F1FF;"/><rect x="301" y="20" width="50" height="34" style="fill:#E6F1FF;"/><rect x="251" y="20" width="50" height="34" style="fill:#E6E6E6;"/><rect x="201" y="20" width="50" height="34" style="fill:#E6F1FF;"/><rect x="151" y="20" width="50" height="34" style="fill:#E6F1FF;"/><rect x="101" y="20" width="50" height="34" style="fill:#E6F1FF;"/><rect x="1" y="20" width="100" height="34" style="fill:#E6E6E6;"/><g transform="translate(776,92)"><text y="6" font-size="13" style='dominant-baseline:middle;text-anchor:middle;'>TIM2 </text></g><g transform="translate(776,116)"><text y="6" font-size="12" style='dominant-baseline:middle;text-anchor:middle;'>rw </text></g><g transform="translate(726,92)"><text y="6" font-size="13" style='dominant-baseline:middle;text-anchor:middle;'>TIM3 </text></g><g transform="translate(726,116)"><text y="6" font-size="12" style='dominant-baseline:middle;text-anchor:middle;'>rw </text></g><g transform="translate(676,92)"><text y="6" font-size="13" style='dominant-baseline:middle;text-anchor:middle;'>TIM4 </text></g><g transform="translate(676,116)"><text y="6" font-size="12" style='dominant-baseline:middle;text-anchor:middle;'>rw </text></g><g transform="translate(451,92)"><text y="6" font-size="13" style='dominant-baseline:middle;text-anchor:middle;'>RES. </text></g><g transform="translate(451,116)"><text y="6" font-size="12" style='dominant-baseline:middle;text-anchor:middle;'>  </text></g><g transform="translate(226,92)"><text y="6" font-size="13" style='dominant-baseline:middle;text-anchor:middle;'>WWDG </text></g><g transform="translate(226,116)"><text y="6" font-size="12" style='dominant-baseline:middle;text-anchor:middle;'>rw </text></g><g transform="translate(151,92)"><text y="6" font-size="13" style='dominant-baseline:middle;text-anchor:middle;'>RES. </text></g><g transform="translate(151,116)"><text y="6" font-size="12" style='dominant-baseline:middle;text-anchor:middle;'>  </text></g><g transform="translate(76,92)"><text y="6" font-size="13" style='dominant-baseline:middle;text-anchor:middle;'>SPI2 </text></g><g transform="translate(76,116)"><text y="6" font-size="12" style='dominant-baseline:middle;text-anchor:middle;'>rw </text></g><g transform="translate(26,92)"><text y="6" font-size="13" style='dominant-baseline:middle;text-anchor:middle;'>RES. </text></g><g transform="translate(26,116)"><text y="6" font-size="12" style='dominant-baseline:middle;text-anchor:middle;'>  </text></g><g transform="translate(776,32)"><text y="6" font-size="13" style='dominant-baseline:middle;text-anchor:middle;'>RES. </text></g><g transform="translate(776,56)"><text y="6" font-size="12" style='dominant-baseline:middle;text-anchor:middle;'>  </text></g><g transform="translate(726,32)"><text y="6" font-size="13" style='dominant-baseline:middle;text-anchor:middle;'>UART2 </text></g><g transform="translate(726,56)"><text y="6" font-size="12" style='dominant-baseline:middle;text-anchor:middle;'>rw </text></g><g transform="translate(676,32)"><text y="6" font-size="13" style='dominant-baseline:middle;text-anchor:middle;'>UART3 </text></g><g transform="translate(676,56)"><text y="6" font-size="12" style='dominant-baseline:middle;text-anchor:middle;'>rw </text></g><g transform="translate(601,32)"><text y="6" font-size="13" style='dominant-baseline:middle;text-anchor:middle;'>RES. </text></g><g transform="translate(601,56)"><text y="6" font-size="12" style='dominant-baseline:middle;text-anchor:middle;'>  </text></g><g transform="translate(526,32)"><text y="6" font-size="13" style='dominant-baseline:middle;text-anchor:middle;'>I2C1 </text></g><g transform="translate(526,56)"><text y="6" font-size="12" style='dominant-baseline:middle;text-anchor:middle;'>rw </text></g><g transform="translate(476,32)"><text y="6" font-size="13" style='dominant-baseline:middle;text-anchor:middle;'>I2C2 </text></g><g transform="translate(476,56)"><text y="6" font-size="12" style='dominant-baseline:middle;text-anchor:middle;'>rw </text></g><g transform="translate(426,32)"><text y="6" font-size="13" style='dominant-baseline:middle;text-anchor:middle;'>USB </text></g><g transform="translate(426,56)"><text y="6" font-size="12" style='dominant-baseline:middle;text-anchor:middle;'>rw </text></g><g transform="translate(376,32)"><text y="6" font-size="13" style='dominant-baseline:middle;text-anchor:middle;'>CRS </text></g><g transform="translate(376,56)"><text y="6" font-size="12" style='dominant-baseline:middle;text-anchor:middle;'>rw </text></g><g transform="translate(326,32)"><text y="6" font-size="13" style='dominant-baseline:middle;text-anchor:middle;'>CAN </text></g><g transform="translate(326,56)"><text y="6" font-size="12" style='dominant-baseline:middle;text-anchor:middle;'>rw </text></g><g transform="translate(276,32)"><text y="6" font-size="13" style='dominant-baseline:middle;text-anchor:middle;'>RES. </text></g><g transform="translate(276,56)"><text y="6" font-size="12" style='dominant-baseline:middle;text-anchor:middle;'>  </text></g><g transform="translate(226,32)"><text y="6" font-size="13" style='dominant-baseline:middle;text-anchor:middle;'>BKP </text></g><g transform="translate(226,56)"><text y="6" font-size="12" style='dominant-baseline:middle;text-anchor:middle;'>rw </text></g><g transform="translate(176,32)"><text y="6" font-size="13" style='dominant-baseline:middle;text-anchor:middle;'>PWR </text></g><g transform="translate(176,56)"><text y="6" font-size="12" style='dominant-baseline:middle;text-anchor:middle;'>rw </text></g><g transform="translate(126,32)"><text y="6" font-size="13" style='dominant-baseline:middle;text-anchor:middle;'>DAC </text></g><g transform="translate(126,56)"><text y="6" font-size="12" style='dominant-baseline:middle;text-anchor:middle;'>rw </text></g><g transform="translate(51,32)"><text y="6" font-size="13" style='dominant-baseline:middle;text-anchor:middle;'>RES. </text></g><g transform="translate(51,56)"><text y="6" font-size="12" style='dominant-baseline:middle;text-anchor:middle;'>  </text></g><g transform="translate(726,68)"><text y="6" font-size="13" style='dominant-baseline:middle;text-anchor:middle;'>1 </text></g><g transform="translate(776,68)"><text y="6" font-size="13" style='dominant-baseline:middle;text-anchor:middle;'>0 </text></g><g transform="translate(676,68)"><text y="6" font-size="13" style='dominant-baseline:middle;text-anchor:middle;'>2 </text></g><g transform="translate(726,68)"><text y="6" font-size="13" style='dominant-baseline:middle;text-anchor:middle;'>1 </text></g><g transform="translate(626,68)"><text y="6" font-size="13" style='dominant-baseline:middle;text-anchor:middle;'>3 </text></g><g transform="translate(676,68)"><text y="6" font-size="13" style='dominant-baseline:middle;text-anchor:middle;'>2 </text></g><g transform="translate(226,68)"><text y="6" font-size="13" style='dominant-baseline:middle;text-anchor:middle;'>11 </text></g><g transform="translate(276,68)"><text y="6" font-size="13" style='dominant-baseline:middle;text-anchor:middle;'>10 </text></g><g transform="translate(176,68)"><text y="6" font-size="13" style='dominant-baseline:middle;text-anchor:middle;'>12 </text></g><g transform="translate(226,68)"><text y="6" font-size="13" style='dominant-baseline:middle;text-anchor:middle;'>11 </text></g><g transform="translate(76,68)"><text y="6" font-size="13" style='dominant-baseline:middle;text-anchor:middle;'>14 </text></g><g transform="translate(126,68)"><text y="6" font-size="13" style='dominant-baseline:middle;text-anchor:middle;'>13 </text></g><g transform="translate(26,68)"><text y="6" font-size="13" style='dominant-baseline:middle;text-anchor:middle;'>15 </text></g><g transform="translate(76,68)"><text y="6" font-size="13" style='dominant-baseline:middle;text-anchor:middle;'>14 </text></g><g transform="translate(-24,68)"><text y="6" font-size="13" style='dominant-baseline:middle;text-anchor:middle;'>16 </text></g><g transform="translate(26,68)"><text y="6" font-size="13" style='dominant-baseline:middle;text-anchor:middle;'>15 </text></g><g transform="translate(726,8)"><text y="6" font-size="13" style='dominant-baseline:middle;text-anchor:middle;'>17 </text></g><g transform="translate(776,8)"><text y="6" font-size="13" style='dominant-baseline:middle;text-anchor:middle;'>16 </text></g><g transform="translate(676,8)"><text y="6" font-size="13" style='dominant-baseline:middle;text-anchor:middle;'>18 </text></g><g transform="translate(726,8)"><text y="6" font-size="13" style='dominant-baseline:middle;text-anchor:middle;'>17 </text></g><g transform="translate(626,8)"><text y="6" font-size="13" style='dominant-baseline:middle;text-anchor:middle;'>19 </text></g><g transform="translate(676,8)"><text y="6" font-size="13" style='dominant-baseline:middle;text-anchor:middle;'>18 </text></g><g transform="translate(526,8)"><text y="6" font-size="13" style='dominant-baseline:middle;text-anchor:middle;'>21 </text></g><g transform="translate(576,8)"><text y="6" font-size="13" style='dominant-baseline:middle;text-anchor:middle;'>20 </text></g><g transform="translate(476,8)"><text y="6" font-size="13" style='dominant-baseline:middle;text-anchor:middle;'>22 </text></g><g transform="translate(526,8)"><text y="6" font-size="13" style='dominant-baseline:middle;text-anchor:middle;'>21 </text></g><g transform="translate(426,8)"><text y="6" font-size="13" style='dominant-baseline:middle;text-anchor:middle;'>23 </text></g><g transform="translate(476,8)"><text y="6" font-size="13" style='dominant-baseline:middle;text-anchor:middle;'>22 </text></g><g transform="translate(376,8)"><text y="6" font-size="13" style='dominant-baseline:middle;text-anchor:middle;'>24 </text></g><g transform="translate(426,8)"><text y="6" font-size="13" style='dominant-baseline:middle;text-anchor:middle;'>23 </text></g><g transform="translate(326,8)"><text y="6" font-size="13" style='dominant-baseline:middle;text-anchor:middle;'>25 </text></g><g transform="translate(376,8)"><text y="6" font-size="13" style='dominant-baseline:middle;text-anchor:middle;'>24 </text></g><g transform="translate(276,8)"><text y="6" font-size="13" style='dominant-baseline:middle;text-anchor:middle;'>26 </text></g><g transform="translate(326,8)"><text y="6" font-size="13" style='dominant-baseline:middle;text-anchor:middle;'>25 </text></g><g transform="translate(226,8)"><text y="6" font-size="13" style='dominant-baseline:middle;text-anchor:middle;'>27 </text></g><g transform="translate(276,8)"><text y="6" font-size="13" style='dominant-baseline:middle;text-anchor:middle;'>26 </text></g><g transform="translate(176,8)"><text y="6" font-size="13" style='dominant-baseline:middle;text-anchor:middle;'>28 </text></g><g transform="translate(226,8)"><text y="6" font-size="13" style='dominant-baseline:middle;text-anchor:middle;'>27 </text></g><g transform="translate(126,8)"><text y="6" font-size="13" style='dominant-baseline:middle;text-anchor:middle;'>29 </text></g><g transform="translate(176,8)"><text y="6" font-size="13" style='dominant-baseline:middle;text-anchor:middle;'>28 </text></g><g transform="translate(76,8)"><text y="6" font-size="13" style='dominant-baseline:middle;text-anchor:middle;'>30 </text></g><g transform="translate(126,8)"><text y="6" font-size="13" style='dominant-baseline:middle;text-anchor:middle;'>29 </text></g><g transform="translate(-24,8)"><text y="6" font-size="13" style='dominant-baseline:middle;text-anchor:middle;'>32 </text></g><g transform="translate(26,8)"><text y="6" font-size="13" style='dominant-baseline:middle;text-anchor:middle;'>31 </text></g><line x1="751" y1="80" x2="751" y2="115" stroke="black" stroke-width="1"/><line x1="701" y1="80" x2="701" y2="115" stroke="black" stroke-width="1"/><line x1="651" y1="80" x2="651" y2="115" stroke="black" stroke-width="1"/><line x1="601" y1="80" x2="601" y2="85" stroke="black" stroke-width="1"/><line x1="601" y1="115" x2="601" y2="110" stroke="black" stroke-width="1"/><line x1="551" y1="80" x2="551" y2="85" stroke="black" stroke-width="1"/><line x1="551" y1="115" x2="551" y2="110" stroke="black" stroke-width="1"/><line x1="501" y1="80" x2="501" y2="85" stroke="black" stroke-width="1"/><line x1="501" y1="115" x2="501" y2="110" stroke="black" stroke-width="1"/><line x1="451" y1="80" x2="451" y2="85" stroke="black" stroke-width="1"/><line x1="451" y1="115" x2="451" y2="110" stroke="black" stroke-width="1"/><line x1="401" y1="80" x2="401" y2="85" stroke="black" stroke-width="1"/><line x1="401" y1="115" x2="401" y2="110" stroke="black" stroke-width="1"/><line x1="351" y1="80" x2="351" y2="85" stroke="black" stroke-width="1"/><line x1="351" y1="115" x2="351" y2="110" stroke="black" stroke-width="1"/><line x1="301" y1="80" x2="301" y2="85" stroke="black" stroke-width="1"/><line x1="301" y1="115" x2="301" y2="110" stroke="black" stroke-width="1"/><line x1="251" y1="80" x2="251" y2="115" stroke="black" stroke-width="1"/><line x1="201" y1="80" x2="201" y2="115" stroke="black" stroke-width="1"/><line x1="151" y1="80" x2="151" y2="85" stroke="black" stroke-width="1"/><line x1="151" y1="115" x2="151" y2="110" stroke="black" stroke-width="1"/><line x1="101" y1="80" x2="101" y2="115" stroke="black" stroke-width="1"/><line x1="51" y1="80" x2="51" y2="115" stroke="black" stroke-width="1"/><line x1="1" y1="80" x2="1" y2="115" stroke="black" stroke-width="1"/><line x1="-49" y1="80" x2="-49" y2="115" stroke="black" stroke-width="1"/><line x1="-99" y1="80" x2="-99" y2="115" stroke="black" stroke-width="1"/><line x1="-149" y1="80" x2="-149" y2="115" stroke="black" stroke-width="1"/><line x1="-199" y1="80" x2="-199" y2="85" stroke="black" stroke-width="1"/><line x1="-199" y1="115" x2="-199" y2="110" stroke="black" stroke-width="1"/><line x1="751" y1="20" x2="751" y2="55" stroke="black" stroke-width="1"/><line x1="701" y1="20" x2="701" y2="55" stroke="black" stroke-width="1"/><line x1="651" y1="20" x2="651" y2="55" stroke="black" stroke-width="1"/><line x1="601" y1="20" x2="601" y2="25" stroke="black" stroke-width="1"/><line x1="601" y1="55" x2="601" y2="50" stroke="black" stroke-width="1"/><line x1="551" y1="20" x2="551" y2="55" stroke="black" stroke-width="1"/><line x1="501" y1="20" x2="501" y2="55" stroke="black" stroke-width="1"/><line x1="451" y1="20" x2="451" y2="55" stroke="black" stroke-width="1"/><line x1="401" y1="20" x2="401" y2="55" stroke="black" stroke-width="1"/><line x1="351" y1="20" x2="351" y2="55" stroke="black" stroke-width="1"/><line x1="301" y1="20" x2="301" y2="55" stroke="black" stroke-width="1"/><line x1="251" y1="20" x2="251" y2="55" stroke="black" stroke-width="1"/><line x1="201" y1="20" x2="201" y2="55" stroke="black" stroke-width="1"/><line x1="151" y1="20" x2="151" y2="55" stroke="black" stroke-width="1"/><line x1="101" y1="20" x2="101" y2="55" stroke="black" stroke-width="1"/><line x1="51" y1="20" x2="51" y2="25" stroke="black" stroke-width="1"/><line x1="51" y1="55" x2="51" y2="50" stroke="black" stroke-width="1"/><line x1="0" y1="20" x2="801" y2="20" stroke="black" stroke-width="1"/><line x1="0" y1="20" x2="0" y2="55" stroke="black" stroke-width="1"/><line x1="0" y1="55" x2="801" y2="55" stroke="black" stroke-width="1"/><line x1="801" y1="20" x2="801" y2="55" stroke="black" stroke-width="1"/><line x1="0" y1="80" x2="801" y2="80" stroke="black" stroke-width="1"/><line x1="0" y1="80" x2="0" y2="115" stroke="black" stroke-width="1"/><line x1="0" y1="115" x2="801" y2="115" stroke="black" stroke-width="1"/><line x1="801" y1="80" x2="801" y2="115" stroke="black" stroke-width="1"/><g transform="translate(776,8)"><text y="6" font-size="13" style='dominant-baseline:middle;text-anchor:middle;'>16 </text></g><g transform="translate(776,68)"><text y="6" font-size="13" style='dominant-baseline:middle;text-anchor:middle;'>0 </text></g></svg>