
    <svg xmlns="http://www.w3.org/2000/svg" width="810" height="150" viewBox="-8 0 810 150"  xmlns:xlink="http://www.w3.org/1999/xlink"><rect x="751" y="80" width="50" height="34" style="fill:#E6F1FF;"/><rect x="701" y="80" width="50" height="34" style="fill:#FFF9E6;"/><rect x="1" y="80" width="700" height="34" style="fill:#E6E6E6;"/><rect x="401" y="20" width="400" height="34" style="fill:#E6E6E6;"/><rect x="351" y="20" width="50" height="34" style="fill:#FFE6E6;"/><rect x="301" y="20" width="50" height="34" style="fill:#E6E6E6;"/><rect x="251" y="20" width="50" height="34" style="fill:#FFF9E6;"/><rect x="201" y="20" width="50" height="34" style="fill:#FFF9E6;"/><rect x="151" y="20" width="50" height="34" style="fill:#FFF9E6;"/><rect x="101" y="20" width="50" height="34" style="fill:#FFF9E6;"/><rect x="51" y="20" width="50" height="34" style="fill:#FFF9E6;"/><rect x="1" y="20" width="50" height="34" style="fill:#E6E6E6;"/><g transform="translate(776,92)"><text y="6" font-size="13" style='dominant-baseline:middle;text-anchor:middle;'>LSION </text></g><g transform="translate(776,116)"><text y="6" font-size="12" style='dominant-baseline:middle;text-anchor:middle;'>rw </text></g><g transform="translate(726,92)"><text y="6" font-size="13" style='dominant-baseline:middle;text-anchor:middle;'>LSIRDY </text></g><g transform="translate(726,116)"><text y="6" font-size="12" style='dominant-baseline:middle;text-anchor:middle;'>r </text></g><g transform="translate(351,92)"><text y="6" font-size="13" style='dominant-baseline:middle;text-anchor:middle;'>RES. </text></g><g transform="translate(351,116)"><text y="6" font-size="12" style='dominant-baseline:middle;text-anchor:middle;'>  </text></g><g transform="translate(601,32)"><text y="6" font-size="13" style='dominant-baseline:middle;text-anchor:middle;'>RES. </text></g><g transform="translate(601,56)"><text y="6" font-size="12" style='dominant-baseline:middle;text-anchor:middle;'>  </text></g><g transform="translate(376,32)"><text y="6" font-size="13" style='dominant-baseline:middle;text-anchor:middle;'>CLR </text></g><g transform="translate(376,56)"><text y="6" font-size="12" style='dominant-baseline:middle;text-anchor:middle;'>w1c </text></g><g transform="translate(326,32)"><text y="6" font-size="13" style='dominant-baseline:middle;text-anchor:middle;'>RES. </text></g><g transform="translate(326,56)"><text y="6" font-size="12" style='dominant-baseline:middle;text-anchor:middle;'>  </text></g><g transform="translate(276,32)"><text y="6" font-size="13" style='dominant-baseline:middle;text-anchor:middle;'>RSTF </text></g><g transform="translate(276,56)"><text y="6" font-size="12" style='dominant-baseline:middle;text-anchor:middle;'>r </text></g><g transform="translate(226,32)"><text y="6" font-size="13" style='dominant-baseline:middle;text-anchor:middle;'>PORF </text></g><g transform="translate(226,56)"><text y="6" font-size="12" style='dominant-baseline:middle;text-anchor:middle;'>r </text></g><g transform="translate(176,32)"><text y="6" font-size="13" style='dominant-baseline:middle;text-anchor:middle;'>SWRSTF </text></g><g transform="translate(176,56)"><text y="6" font-size="12" style='dominant-baseline:middle;text-anchor:middle;'>r </text></g><g transform="translate(126,32)"><text y="6" font-size="13" style='dominant-baseline:middle;text-anchor:middle;'>IWDGF </text></g><g transform="translate(126,56)"><text y="6" font-size="12" style='dominant-baseline:middle;text-anchor:middle;'>r </text></g><g transform="translate(76,32)"><text y="6" font-size="13" style='dominant-baseline:middle;text-anchor:middle;'>WWDGF </text></g><g transform="translate(76,56)"><text y="6" font-size="12" style='dominant-baseline:middle;text-anchor:middle;'>r </text></g><g transform="translate(26,32)"><text y="6" font-size="13" style='dominant-baseline:middle;text-anchor:middle;'>RES. </text></g><g transform="translate(26,56)"><text y="6" font-size="12" style='dominant-baseline:middle;text-anchor:middle;'>  </text></g><g transform="translate(726,68)"><text y="6" font-size="13" style='dominant-baseline:middle;text-anchor:middle;'>1 </text></g><g transform="translate(776,68)"><text y="6" font-size="13" style='dominant-baseline:middle;text-anchor:middle;'>0 </text></g><g transform="translate(676,68)"><text y="6" font-size="13" style='dominant-baseline:middle;text-anchor:middle;'>2 </text></g><g transform="translate(726,68)"><text y="6" font-size="13" style='dominant-baseline:middle;text-anchor:middle;'>1 </text></g><g transform="translate(-24,68)"><text y="6" font-size="13" style='dominant-baseline:middle;text-anchor:middle;'>16 </text></g><g transform="translate(26,68)"><text y="6" font-size="13" style='dominant-baseline:middle;text-anchor:middle;'>15 </text></g><g transform="translate(376,8)"><text y="6" font-size="13" style='dominant-baseline:middle;text-anchor:middle;'>24 </text></g><g transform="translate(426,8)"><text y="6" font-size="13" style='dominant-baseline:middle;text-anchor:middle;'>23 </text></g><g transform="translate(326,8)"><text y="6" font-size="13" style='dominant-baseline:middle;text-anchor:middle;'>25 </text></g><g transform="translate(376,8)"><text y="6" font-size="13" style='dominant-baseline:middle;text-anchor:middle;'>24 </text></g><g transform="translate(276,8)"><text y="6" font-size="13" style='dominant-baseline:middle;text-anchor:middle;'>26 </text></g><g transform="translate(326,8)"><text y="6" font-size="13" style='dominant-baseline:middle;text-anchor:middle;'>25 </text></g><g transform="translate(226,8)"><text y="6" font-size="13" style='dominant-baseline:middle;text-anchor:middle;'>27 </text></g><g transform="translate(276,8)"><text y="6" font-size="13" style='dominant-baseline:middle;text-anchor:middle;'>26 </text></g><g transform="translate(176,8)"><text y="6" font-size="13" style='dominant-baseline:middle;text-anchor:middle;'>28 </text></g><g transform="translate(226,8)"><text y="6" font-size="13" style='dominant-baseline:middle;text-anchor:middle;'>27 </text></g><g transform="translate(126,8)"><text y="6" font-size="13" style='dominant-baseline:middle;text-anchor:middle;'>29 </text></g><g transform="translate(176,8)"><text y="6" font-size="13" style='dominant-baseline:middle;text-anchor:middle;'>28 </text></g><g transform="translate(76,8)"><text y="6" font-size="13" style='dominant-baseline:middle;text-anchor:middle;'>30 </text></g><g transform="translate(126,8)"><text y="6" font-size="13" style='dominant-baseline:middle;text-anchor:middle;'>29 </text></g><g transform="translate(26,8)"><text y="6" font-size="13" style='dominant-baseline:middle;text-anchor:middle;'>31 </text></g><g transform="translate(76,8)"><text y="6" font-size="13" style='dominant-baseline:middle;text-anchor:middle;'>30 </text></g><g transform="translate(-24,8)"><text y="6" font-size="13" style='dominant-baseline:middle;text-anchor:middle;'>32 </text></g><g transform="translate(26,8)"><text y="6" font-size="13" style='dominant-baseline:middle;text-anchor:middle;'>31 </text></g><line x1="751" y1="80" x2="751" y2="115" stroke="black" stroke-width="1"/><line x1="701" y1="80" x2="701" y2="115" stroke="black" stroke-width="1"/><line x1="651" y1="80" x2="651" y2="85" stroke="black" stroke-width="1"/><line x1="651" y1="115" x2="651" y2="110" stroke="black" stroke-width="1"/><line x1="601" y1="80" x2="601" y2="85" stroke="black" stroke-width="1"/><line x1="601" y1="115" x2="601" y2="110" stroke="black" stroke-width="1"/><line x1="551" y1="80" x2="551" y2="85" stroke="black" stroke-width="1"/><line x1="551" y1="115" x2="551" y2="110" stroke="black" stroke-width="1"/><line x1="501" y1="80" x2="501" y2="85" stroke="black" stroke-width="1"/><line x1="501" y1="115" x2="501" y2="110" stroke="black" stroke-width="1"/><line x1="451" y1="80" x2="451" y2="85" stroke="black" stroke-width="1"/><line x1="451" y1="115" x2="451" y2="110" stroke="black" stroke-width="1"/><line x1="401" y1="80" x2="401" y2="85" stroke="black" stroke-width="1"/><line x1="401" y1="115" x2="401" y2="110" stroke="black" stroke-width="1"/><line x1="351" y1="80" x2="351" y2="85" stroke="black" stroke-width="1"/><line x1="351" y1="115" x2="351" y2="110" stroke="black" stroke-width="1"/><line x1="301" y1="80" x2="301" y2="85" stroke="black" stroke-width="1"/><line x1="301" y1="115" x2="301" y2="110" stroke="black" stroke-width="1"/><line x1="251" y1="80" x2="251" y2="85" stroke="black" stroke-width="1"/><line x1="251" y1="115" x2="251" y2="110" stroke="black" stroke-width="1"/><line x1="201" y1="80" x2="201" y2="85" stroke="black" stroke-width="1"/><line x1="201" y1="115" x2="201" y2="110" stroke="black" stroke-width="1"/><line x1="151" y1="80" x2="151" y2="85" stroke="black" stroke-width="1"/><line x1="151" y1="115" x2="151" y2="110" stroke="black" stroke-width="1"/><line x1="101" y1="80" x2="101" y2="85" stroke="black" stroke-width="1"/><line x1="101" y1="115" x2="101" y2="110" stroke="black" stroke-width="1"/><line x1="51" y1="80" x2="51" y2="85" stroke="black" stroke-width="1"/><line x1="51" y1="115" x2="51" y2="110" stroke="black" stroke-width="1"/><line x1="751" y1="20" x2="751" y2="25" stroke="black" stroke-width="1"/><line x1="751" y1="55" x2="751" y2="50" stroke="black" stroke-width="1"/><line x1="701" y1="20" x2="701" y2="25" stroke="black" stroke-width="1"/><line x1="701" y1="55" x2="701" y2="50" stroke="black" stroke-width="1"/><line x1="651" y1="20" x2="651" y2="25" stroke="black" stroke-width="1"/><line x1="651" y1="55" x2="651" y2="50" stroke="black" stroke-width="1"/><line x1="601" y1="20" x2="601" y2="25" stroke="black" stroke-width="1"/><line x1="601" y1="55" x2="601" y2="50" stroke="black" stroke-width="1"/><line x1="551" y1="20" x2="551" y2="25" stroke="black" stroke-width="1"/><line x1="551" y1="55" x2="551" y2="50" stroke="black" stroke-width="1"/><line x1="501" y1="20" x2="501" y2="25" stroke="black" stroke-width="1"/><line x1="501" y1="55" x2="501" y2="50" stroke="black" stroke-width="1"/><line x1="451" y1="20" x2="451" y2="25" stroke="black" stroke-width="1"/><line x1="451" y1="55" x2="451" y2="50" stroke="black" stroke-width="1"/><line x1="401" y1="20" x2="401" y2="55" stroke="black" stroke-width="1"/><line x1="351" y1="20" x2="351" y2="55" stroke="black" stroke-width="1"/><line x1="301" y1="20" x2="301" y2="55" stroke="black" stroke-width="1"/><line x1="251" y1="20" x2="251" y2="55" stroke="black" stroke-width="1"/><line x1="201" y1="20" x2="201" y2="55" stroke="black" stroke-width="1"/><line x1="151" y1="20" x2="151" y2="55" stroke="black" stroke-width="1"/><line x1="101" y1="20" x2="101" y2="55" stroke="black" stroke-width="1"/><line x1="51" y1="20" x2="51" y2="55" stroke="black" stroke-width="1"/><line x1="1" y1="20" x2="1" y2="55" stroke="black" stroke-width="1"/><line x1="0" y1="20" x2="801" y2="20" stroke="black" stroke-width="1"/><line x1="0" y1="20" x2="0" y2="55" stroke="black" stroke-width="1"/><line x1="0" y1="55" x2="801" y2="55" stroke="black" stroke-width="1"/><line x1="801" y1="20" x2="801" y2="55" stroke="black" stroke-width="1"/><line x1="0" y1="80" x2="801" y2="80" stroke="black" stroke-width="1"/><line x1="0" y1="80" x2="0" y2="115" stroke="black" stroke-width="1"/><line x1="0" y1="115" x2="801" y2="115" stroke="black" stroke-width="1"/><line x1="801" y1="80" x2="801" y2="115" stroke="black" stroke-width="1"/><g transform="translate(776,8)"><text y="6" font-size="13" style='dominant-baseline:middle;text-anchor:middle;'>16 </text></g><g transform="translate(776,68)"><text y="6" font-size="13" style='dominant-baseline:middle;text-anchor:middle;'>0 </text></g></svg>