
    <svg xmlns="http://www.w3.org/2000/svg" width="810" height="150" viewBox="-8 0 810 150"  xmlns:xlink="http://www.w3.org/1999/xlink"><rect x="751" y="80" width="50" height="34" style="fill:#FFF9E6;"/><rect x="701" y="80" width="50" height="34" style="fill:#FFF9E6;"/><rect x="651" y="80" width="50" height="34" style="fill:#FFF9E6;"/><rect x="601" y="80" width="50" height="34" style="fill:#FFF9E6;"/><rect x="551" y="80" width="50" height="34" style="fill:#FFF9E6;"/><rect x="501" y="80" width="50" height="34" style="fill:#FFF9E6;"/><rect x="451" y="80" width="50" height="34" style="fill:#FFF9E6;"/><rect x="401" y="80" width="50" height="34" style="fill:#FFF9E6;"/><rect x="351" y="80" width="50" height="34" style="fill:#FFF9E6;"/><rect x="301" y="80" width="50" height="34" style="fill:#FFF9E6;"/><rect x="251" y="80" width="50" height="34" style="fill:#FFF9E6;"/><rect x="201" y="80" width="50" height="34" style="fill:#FFF9E6;"/><rect x="151" y="80" width="50" height="34" style="fill:#FFF9E6;"/><rect x="101" y="80" width="50" height="34" style="fill:#FFF9E6;"/><rect x="1" y="80" width="100" height="34" style="fill:#E6E6E6;"/><rect x="1" y="20" width="800" height="34" style="fill:#E6E6E6;"/><g transform="translate(776,92)"><text y="6" font-size="13" style='dominant-baseline:middle;text-anchor:middle;'>RX_UNDER </text></g><g transform="translate(776,116)"><text y="6" font-size="12" style='dominant-baseline:middle;text-anchor:middle;'>r </text></g><g transform="translate(726,92)"><text y="6" font-size="13" style='dominant-baseline:middle;text-anchor:middle;'>RX_OVER </text></g><g transform="translate(726,116)"><text y="6" font-size="12" style='dominant-baseline:middle;text-anchor:middle;'>r </text></g><g transform="translate(676,92)"><text y="6" font-size="13" style='dominant-baseline:middle;text-anchor:middle;'>RX_FULL </text></g><g transform="translate(676,116)"><text y="6" font-size="12" style='dominant-baseline:middle;text-anchor:middle;'>r </text></g><g transform="translate(626,92)"><text y="6" font-size="13" style='dominant-baseline:middle;text-anchor:middle;'>TX_OVER </text></g><g transform="translate(626,116)"><text y="6" font-size="12" style='dominant-baseline:middle;text-anchor:middle;'>r </text></g><g transform="translate(576,92)"><text y="6" font-size="13" style='dominant-baseline:middle;text-anchor:middle;'>TX_EMPTY </text></g><g transform="translate(576,116)"><text y="6" font-size="12" style='dominant-baseline:middle;text-anchor:middle;'>r </text></g><g transform="translate(526,92)"><text y="6" font-size="13" style='dominant-baseline:middle;text-anchor:middle;'>RX_REQ </text></g><g transform="translate(526,116)"><text y="6" font-size="12" style='dominant-baseline:middle;text-anchor:middle;'>r </text></g><g transform="translate(476,92)"><text y="6" font-size="13" style='dominant-baseline:middle;text-anchor:middle;'>TX_ABRT </text></g><g transform="translate(476,116)"><text y="6" font-size="12" style='dominant-baseline:middle;text-anchor:middle;'>r </text></g><g transform="translate(426,92)"><text y="6" font-size="13" style='dominant-baseline:middle;text-anchor:middle;'>RX_DONE </text></g><g transform="translate(426,116)"><text y="6" font-size="12" style='dominant-baseline:middle;text-anchor:middle;'>r </text></g><g transform="translate(376,92)"><text y="6" font-size="13" style='dominant-baseline:middle;text-anchor:middle;'>ACTIV </text></g><g transform="translate(376,116)"><text y="6" font-size="12" style='dominant-baseline:middle;text-anchor:middle;'>r </text></g><g transform="translate(326,92)"><text y="6" font-size="13" style='dominant-baseline:middle;text-anchor:middle;'>STOP </text></g><g transform="translate(326,116)"><text y="6" font-size="12" style='dominant-baseline:middle;text-anchor:middle;'>r </text></g><g transform="translate(276,92)"><text y="6" font-size="13" style='dominant-baseline:middle;text-anchor:middle;'>START </text></g><g transform="translate(276,116)"><text y="6" font-size="12" style='dominant-baseline:middle;text-anchor:middle;'>r </text></g><g transform="translate(226,92)"><text y="6" font-size="13" style='dominant-baseline:middle;text-anchor:middle;'>GC </text></g><g transform="translate(226,116)"><text y="6" font-size="12" style='dominant-baseline:middle;text-anchor:middle;'>r </text></g><g transform="translate(176,92)"><text y="6" font-size="13" style='dominant-baseline:middle;text-anchor:middle;'>RESTART </text></g><g transform="translate(176,116)"><text y="6" font-size="12" style='dominant-baseline:middle;text-anchor:middle;'>r </text></g><g transform="translate(126,92)"><text y="6" font-size="13" style='dominant-baseline:middle;text-anchor:middle;'>HOLD </text></g><g transform="translate(126,116)"><text y="6" font-size="12" style='dominant-baseline:middle;text-anchor:middle;'>r </text></g><g transform="translate(51,92)"><text y="6" font-size="13" style='dominant-baseline:middle;text-anchor:middle;'>RES. </text></g><g transform="translate(51,116)"><text y="6" font-size="12" style='dominant-baseline:middle;text-anchor:middle;'>undefined </text></g><g transform="translate(401,32)"><text y="6" font-size="13" style='dominant-baseline:middle;text-anchor:middle;'>RES. </text></g><g transform="translate(401,56)"><text y="6" font-size="12" style='dominant-baseline:middle;text-anchor:middle;'>undefined </text></g><g transform="translate(726,68)"><text y="6" font-size="13" style='dominant-baseline:middle;text-anchor:middle;'>1 </text></g><g transform="translate(776,68)"><text y="6" font-size="13" style='dominant-baseline:middle;text-anchor:middle;'>0 </text></g><g transform="translate(676,68)"><text y="6" font-size="13" style='dominant-baseline:middle;text-anchor:middle;'>2 </text></g><g transform="translate(726,68)"><text y="6" font-size="13" style='dominant-baseline:middle;text-anchor:middle;'>1 </text></g><g transform="translate(626,68)"><text y="6" font-size="13" style='dominant-baseline:middle;text-anchor:middle;'>3 </text></g><g transform="translate(676,68)"><text y="6" font-size="13" style='dominant-baseline:middle;text-anchor:middle;'>2 </text></g><g transform="translate(576,68)"><text y="6" font-size="13" style='dominant-baseline:middle;text-anchor:middle;'>4 </text></g><g transform="translate(626,68)"><text y="6" font-size="13" style='dominant-baseline:middle;text-anchor:middle;'>3 </text></g><g transform="translate(526,68)"><text y="6" font-size="13" style='dominant-baseline:middle;text-anchor:middle;'>5 </text></g><g transform="translate(576,68)"><text y="6" font-size="13" style='dominant-baseline:middle;text-anchor:middle;'>4 </text></g><g transform="translate(476,68)"><text y="6" font-size="13" style='dominant-baseline:middle;text-anchor:middle;'>6 </text></g><g transform="translate(526,68)"><text y="6" font-size="13" style='dominant-baseline:middle;text-anchor:middle;'>5 </text></g><g transform="translate(426,68)"><text y="6" font-size="13" style='dominant-baseline:middle;text-anchor:middle;'>7 </text></g><g transform="translate(476,68)"><text y="6" font-size="13" style='dominant-baseline:middle;text-anchor:middle;'>6 </text></g><g transform="translate(376,68)"><text y="6" font-size="13" style='dominant-baseline:middle;text-anchor:middle;'>8 </text></g><g transform="translate(426,68)"><text y="6" font-size="13" style='dominant-baseline:middle;text-anchor:middle;'>7 </text></g><g transform="translate(326,68)"><text y="6" font-size="13" style='dominant-baseline:middle;text-anchor:middle;'>9 </text></g><g transform="translate(376,68)"><text y="6" font-size="13" style='dominant-baseline:middle;text-anchor:middle;'>8 </text></g><g transform="translate(276,68)"><text y="6" font-size="13" style='dominant-baseline:middle;text-anchor:middle;'>10 </text></g><g transform="translate(326,68)"><text y="6" font-size="13" style='dominant-baseline:middle;text-anchor:middle;'>9 </text></g><g transform="translate(226,68)"><text y="6" font-size="13" style='dominant-baseline:middle;text-anchor:middle;'>11 </text></g><g transform="translate(276,68)"><text y="6" font-size="13" style='dominant-baseline:middle;text-anchor:middle;'>10 </text></g><g transform="translate(176,68)"><text y="6" font-size="13" style='dominant-baseline:middle;text-anchor:middle;'>12 </text></g><g transform="translate(226,68)"><text y="6" font-size="13" style='dominant-baseline:middle;text-anchor:middle;'>11 </text></g><g transform="translate(126,68)"><text y="6" font-size="13" style='dominant-baseline:middle;text-anchor:middle;'>13 </text></g><g transform="translate(176,68)"><text y="6" font-size="13" style='dominant-baseline:middle;text-anchor:middle;'>12 </text></g><g transform="translate(76,68)"><text y="6" font-size="13" style='dominant-baseline:middle;text-anchor:middle;'>14 </text></g><g transform="translate(126,68)"><text y="6" font-size="13" style='dominant-baseline:middle;text-anchor:middle;'>13 </text></g><g transform="translate(-24,68)"><text y="6" font-size="13" style='dominant-baseline:middle;text-anchor:middle;'>16 </text></g><g transform="translate(26,68)"><text y="6" font-size="13" style='dominant-baseline:middle;text-anchor:middle;'>15 </text></g><g transform="translate(-24,8)"><text y="6" font-size="13" style='dominant-baseline:middle;text-anchor:middle;'>32 </text></g><g transform="translate(26,8)"><text y="6" font-size="13" style='dominant-baseline:middle;text-anchor:middle;'>31 </text></g><line x1="751" y1="80" x2="751" y2="115" stroke="black" stroke-width="1"/><line x1="701" y1="80" x2="701" y2="115" stroke="black" stroke-width="1"/><line x1="651" y1="80" x2="651" y2="115" stroke="black" stroke-width="1"/><line x1="601" y1="80" x2="601" y2="115" stroke="black" stroke-width="1"/><line x1="551" y1="80" x2="551" y2="115" stroke="black" stroke-width="1"/><line x1="501" y1="80" x2="501" y2="115" stroke="black" stroke-width="1"/><line x1="451" y1="80" x2="451" y2="115" stroke="black" stroke-width="1"/><line x1="401" y1="80" x2="401" y2="115" stroke="black" stroke-width="1"/><line x1="351" y1="80" x2="351" y2="115" stroke="black" stroke-width="1"/><line x1="301" y1="80" x2="301" y2="115" stroke="black" stroke-width="1"/><line x1="251" y1="80" x2="251" y2="115" stroke="black" stroke-width="1"/><line x1="201" y1="80" x2="201" y2="115" stroke="black" stroke-width="1"/><line x1="151" y1="80" x2="151" y2="115" stroke="black" stroke-width="1"/><line x1="101" y1="80" x2="101" y2="115" stroke="black" stroke-width="1"/><line x1="51" y1="80" x2="51" y2="85" stroke="black" stroke-width="1"/><line x1="51" y1="115" x2="51" y2="110" stroke="black" stroke-width="1"/><line x1="751" y1="20" x2="751" y2="25" stroke="black" stroke-width="1"/><line x1="751" y1="55" x2="751" y2="50" stroke="black" stroke-width="1"/><line x1="701" y1="20" x2="701" y2="25" stroke="black" stroke-width="1"/><line x1="701" y1="55" x2="701" y2="50" stroke="black" stroke-width="1"/><line x1="651" y1="20" x2="651" y2="25" stroke="black" stroke-width="1"/><line x1="651" y1="55" x2="651" y2="50" stroke="black" stroke-width="1"/><line x1="601" y1="20" x2="601" y2="25" stroke="black" stroke-width="1"/><line x1="601" y1="55" x2="601" y2="50" stroke="black" stroke-width="1"/><line x1="551" y1="20" x2="551" y2="25" stroke="black" stroke-width="1"/><line x1="551" y1="55" x2="551" y2="50" stroke="black" stroke-width="1"/><line x1="501" y1="20" x2="501" y2="25" stroke="black" stroke-width="1"/><line x1="501" y1="55" x2="501" y2="50" stroke="black" stroke-width="1"/><line x1="451" y1="20" x2="451" y2="25" stroke="black" stroke-width="1"/><line x1="451" y1="55" x2="451" y2="50" stroke="black" stroke-width="1"/><line x1="401" y1="20" x2="401" y2="25" stroke="black" stroke-width="1"/><line x1="401" y1="55" x2="401" y2="50" stroke="black" stroke-width="1"/><line x1="351" y1="20" x2="351" y2="25" stroke="black" stroke-width="1"/><line x1="351" y1="55" x2="351" y2="50" stroke="black" stroke-width="1"/><line x1="301" y1="20" x2="301" y2="25" stroke="black" stroke-width="1"/><line x1="301" y1="55" x2="301" y2="50" stroke="black" stroke-width="1"/><line x1="251" y1="20" x2="251" y2="25" stroke="black" stroke-width="1"/><line x1="251" y1="55" x2="251" y2="50" stroke="black" stroke-width="1"/><line x1="201" y1="20" x2="201" y2="25" stroke="black" stroke-width="1"/><line x1="201" y1="55" x2="201" y2="50" stroke="black" stroke-width="1"/><line x1="151" y1="20" x2="151" y2="25" stroke="black" stroke-width="1"/><line x1="151" y1="55" x2="151" y2="50" stroke="black" stroke-width="1"/><line x1="101" y1="20" x2="101" y2="25" stroke="black" stroke-width="1"/><line x1="101" y1="55" x2="101" y2="50" stroke="black" stroke-width="1"/><line x1="51" y1="20" x2="51" y2="25" stroke="black" stroke-width="1"/><line x1="51" y1="55" x2="51" y2="50" stroke="black" stroke-width="1"/><line x1="0" y1="20" x2="801" y2="20" stroke="black" stroke-width="1"/><line x1="0" y1="20" x2="0" y2="55" stroke="black" stroke-width="1"/><line x1="0" y1="55" x2="801" y2="55" stroke="black" stroke-width="1"/><line x1="801" y1="20" x2="801" y2="55" stroke="black" stroke-width="1"/><line x1="0" y1="80" x2="801" y2="80" stroke="black" stroke-width="1"/><line x1="0" y1="80" x2="0" y2="115" stroke="black" stroke-width="1"/><line x1="0" y1="115" x2="801" y2="115" stroke="black" stroke-width="1"/><line x1="801" y1="80" x2="801" y2="115" stroke="black" stroke-width="1"/><g transform="translate(776,8)"><text y="6" font-size="13" style='dominant-baseline:middle;text-anchor:middle;'>16 </text></g><g transform="translate(776,68)"><text y="6" font-size="13" style='dominant-baseline:middle;text-anchor:middle;'>0 </text></g></svg>