
    <svg xmlns="http://www.w3.org/2000/svg" width="810" height="150" viewBox="-8 0 810 150"  xmlns:xlink="http://www.w3.org/1999/xlink"><rect x="601" y="80" width="200" height="34" style="fill:#E6F1FF;"/><rect x="601" y="20" width="800" height="34" style="fill:#E6E6E6;"/><g transform="translate(701,92)"><text y="6" font-size="13" style='dominant-baseline:middle;text-anchor:middle;'>FRACTION </text></g><g transform="translate(701,116)"><text y="6" font-size="12" style='dominant-baseline:middle;text-anchor:middle;'>rw </text></g><g transform="translate(1001,32)"><text y="6" font-size="13" style='dominant-baseline:middle;text-anchor:middle;'>RES. </text></g><g transform="translate(1001,56)"><text y="6" font-size="12" style='dominant-baseline:middle;text-anchor:middle;'> </text></g><g transform="translate(576,68)"><text y="6" font-size="13" style='dominant-baseline:middle;text-anchor:middle;'>4 </text></g><g transform="translate(626,68)"><text y="6" font-size="13" style='dominant-baseline:middle;text-anchor:middle;'>3 </text></g><g transform="translate(576,8)"><text y="6" font-size="13" style='dominant-baseline:middle;text-anchor:middle;'>20 </text></g><g transform="translate(626,8)"><text y="6" font-size="13" style='dominant-baseline:middle;text-anchor:middle;'>19 </text></g><line x1="751" y1="80" x2="751" y2="85" stroke="black" stroke-width="1"/><line x1="751" y1="115" x2="751" y2="110" stroke="black" stroke-width="1"/><line x1="701" y1="80" x2="701" y2="85" stroke="black" stroke-width="1"/><line x1="701" y1="115" x2="701" y2="110" stroke="black" stroke-width="1"/><line x1="651" y1="80" x2="651" y2="85" stroke="black" stroke-width="1"/><line x1="651" y1="115" x2="651" y2="110" stroke="black" stroke-width="1"/><line x1="601" y1="80" x2="601" y2="115" stroke="black" stroke-width="1"/><line x1="551" y1="80" x2="551" y2="85" stroke="black" stroke-width="1"/><line x1="551" y1="115" x2="551" y2="110" stroke="black" stroke-width="1"/><line x1="501" y1="80" x2="501" y2="85" stroke="black" stroke-width="1"/><line x1="501" y1="115" x2="501" y2="110" stroke="black" stroke-width="1"/><line x1="451" y1="80" x2="451" y2="85" stroke="black" stroke-width="1"/><line x1="451" y1="115" x2="451" y2="110" stroke="black" stroke-width="1"/><line x1="401" y1="80" x2="401" y2="85" stroke="black" stroke-width="1"/><line x1="401" y1="115" x2="401" y2="110" stroke="black" stroke-width="1"/><line x1="351" y1="80" x2="351" y2="85" stroke="black" stroke-width="1"/><line x1="351" y1="115" x2="351" y2="110" stroke="black" stroke-width="1"/><line x1="301" y1="80" x2="301" y2="85" stroke="black" stroke-width="1"/><line x1="301" y1="115" x2="301" y2="110" stroke="black" stroke-width="1"/><line x1="251" y1="80" x2="251" y2="85" stroke="black" stroke-width="1"/><line x1="251" y1="115" x2="251" y2="110" stroke="black" stroke-width="1"/><line x1="201" y1="80" x2="201" y2="85" stroke="black" stroke-width="1"/><line x1="201" y1="115" x2="201" y2="110" stroke="black" stroke-width="1"/><line x1="151" y1="80" x2="151" y2="85" stroke="black" stroke-width="1"/><line x1="151" y1="115" x2="151" y2="110" stroke="black" stroke-width="1"/><line x1="101" y1="80" x2="101" y2="85" stroke="black" stroke-width="1"/><line x1="101" y1="115" x2="101" y2="110" stroke="black" stroke-width="1"/><line x1="51" y1="80" x2="51" y2="85" stroke="black" stroke-width="1"/><line x1="51" y1="115" x2="51" y2="110" stroke="black" stroke-width="1"/><line x1="1" y1="80" x2="1" y2="85" stroke="black" stroke-width="1"/><line x1="1" y1="115" x2="1" y2="110" stroke="black" stroke-width="1"/><line x1="-49" y1="80" x2="-49" y2="85" stroke="black" stroke-width="1"/><line x1="-49" y1="115" x2="-49" y2="110" stroke="black" stroke-width="1"/><line x1="-99" y1="80" x2="-99" y2="85" stroke="black" stroke-width="1"/><line x1="-99" y1="115" x2="-99" y2="110" stroke="black" stroke-width="1"/><line x1="-149" y1="80" x2="-149" y2="85" stroke="black" stroke-width="1"/><line x1="-149" y1="115" x2="-149" y2="110" stroke="black" stroke-width="1"/><line x1="751" y1="20" x2="751" y2="25" stroke="black" stroke-width="1"/><line x1="751" y1="55" x2="751" y2="50" stroke="black" stroke-width="1"/><line x1="701" y1="20" x2="701" y2="25" stroke="black" stroke-width="1"/><line x1="701" y1="55" x2="701" y2="50" stroke="black" stroke-width="1"/><line x1="651" y1="20" x2="651" y2="25" stroke="black" stroke-width="1"/><line x1="651" y1="55" x2="651" y2="50" stroke="black" stroke-width="1"/><line x1="601" y1="20" x2="601" y2="55" stroke="black" stroke-width="1"/><line x1="0" y1="20" x2="801" y2="20" stroke="black" stroke-width="1"/><line x1="0" y1="20" x2="0" y2="55" stroke="black" stroke-width="1"/><line x1="0" y1="55" x2="801" y2="55" stroke="black" stroke-width="1"/><line x1="801" y1="20" x2="801" y2="55" stroke="black" stroke-width="1"/><line x1="0" y1="80" x2="801" y2="80" stroke="black" stroke-width="1"/><line x1="0" y1="80" x2="0" y2="115" stroke="black" stroke-width="1"/><line x1="0" y1="115" x2="801" y2="115" stroke="black" stroke-width="1"/><line x1="801" y1="80" x2="801" y2="115" stroke="black" stroke-width="1"/><g transform="translate(776,8)"><text y="6" font-size="13" style='dominant-baseline:middle;text-anchor:middle;'>16 </text></g><g transform="translate(776,68)"><text y="6" font-size="13" style='dominant-baseline:middle;text-anchor:middle;'>0 </text></g></svg>